<svg width="42" height="22" viewBox="0 0 42 22" fill="none" xmlns="http://www.w3.org/2000/svg">
<path d="M0.0985041 21V1.456H4.5505L10.7665 15.988L16.9825 1.456H21.4065V21H17.4865V8.288L12.2505 21H9.2825L4.0185 8.288V21H0.0985041ZM29.2021 7.756C30.1541 6.328 31.9741 5.236 34.3261 5.236C38.3021 5.236 41.4101 8.344 41.4101 13.188C41.4101 18.032 38.3021 21.252 34.3261 21.252C31.8901 21.252 30.1541 20.132 29.2021 18.788V21H25.2821V0.28H29.2021V7.756ZM37.4061 13.188C37.4061 10.248 35.4181 8.68 33.2901 8.68C31.1901 8.68 29.2021 10.304 29.2021 13.244C29.2021 16.184 31.1901 17.808 33.2901 17.808C35.4181 17.808 37.4061 16.128 37.4061 13.188Z" fill="#5151F9"/>
</svg>
